<svg xmlns="http://www.w3.org/2000/svg" xmlns:xlink="http://www.w3.org/1999/xlink" width="375" viewBox="0 0 375 375" height="375" version="1.0"><defs><clipPath id="d"><path d="M 0.078125 0.839844 L 73 0.839844 L 73 74 L 0.078125 74 Z M 0.078125 0.839844"/></clipPath><clipPath id="c"><path d="M0 0H74V75H0z"/></clipPath><clipPath id="f"><path d="M0 0H75V75H0z"/></clipPath><clipPath id="i"><path d="M 1 1 L 74 1 L 74 74.039062 L 1 74.039062 Z M 1 1"/></clipPath><clipPath id="h"><path d="M0 0H75V75H0z"/></clipPath><mask id="b"><g filter="url(#a)"><path fill-opacity=".71" d="M-37.5 -37.5H412.5V412.5H-37.5z"/></g></mask><mask id="e"><g filter="url(#a)"><path fill-opacity=".769" d="M-37.5 -37.5H412.5V412.5H-37.5z"/></g></mask><mask id="g"><g filter="url(#a)"><path fill-opacity=".8" d="M-37.5 -37.5H412.5V412.5H-37.5z"/></g></mask><filter x="0%" y="0%" width="100%" xmlns:xlink="http://www.w3.org/1999/xlink" xlink:type="simple" xlink:actuate="onLoad" height="100%" id="a" xlink:show="other"><feColorMatrix values="0 0 0 0 1 0 0 0 0 1 0 0 0 0 1 0 0 0 1 0" color-interpolation-filters="sRGB"/></filter></defs><g mask="url(#b)"><g><g clip-path="url(#c)" transform="translate(136 135)"><g clip-path="url(#d)"><path fill="#64748B" d="M 72.945312 0.960938 L 72.945312 73.90625 L 0.144531 73.90625 Z M 72.945312 0.960938"/></g></g></g></g><g mask="url(#e)"><g><g clip-path="url(#f)" transform="translate(150 150)"><path fill="#0F172A" d="M 73.886719 1.019531 L 73.886719 73.964844 L 1.085938 73.964844 Z M 73.886719 1.019531"/></g></g></g><g mask="url(#g)"><g><g clip-path="url(#h)" transform="translate(165 165)"><g clip-path="url(#i)"><path fill="#64748B" d="M 73.828125 1.078125 L 73.828125 74.023438 L 1.027344 74.023438 Z M 73.828125 1.078125"/></g></g></g></g></svg>