<svg xmlns="http://www.w3.org/2000/svg" xmlns:xlink="http://www.w3.org/1999/xlink" width="37.5" viewBox="0 0 37.5 37.5" height="37.5" version="1.0"><defs><clipPath id="d"><path d="M 0 0 L 26.761719 0 L 26.761719 26.761719 L 0 26.761719 Z M 0 0"/></clipPath><clipPath id="c"><path d="M0 0H27V27H0z"/></clipPath><clipPath id="g"><path d="M 0.210938 0.449219 L 26.972656 0.449219 L 26.972656 27.210938 L 0.210938 27.210938 Z M 0.210938 0.449219"/></clipPath><clipPath id="f"><path d="M0 0H27V28H0z"/></clipPath><clipPath id="h"><path d="M 10 10 L 37.007812 10 L 37.007812 37.007812 L 10 37.007812 Z M 10 10"/></clipPath><clipPath id="k"><path d="M 0.65625 0.894531 L 27.007812 0.894531 L 27.007812 27.007812 L 0.65625 27.007812 Z M 0.65625 0.894531"/></clipPath><clipPath id="j"><path d="M0 0H28V28H0z"/></clipPath><mask id="b"><g filter="url(#a)"><path fill-opacity=".71" d="M-3.75 -3.75H41.25V41.25H-3.75z"/></g></mask><mask id="e"><g filter="url(#a)"><path fill-opacity=".769" d="M-3.75 -3.75H41.25V41.25H-3.75z"/></g></mask><mask id="i"><g filter="url(#a)"><path fill-opacity=".8" d="M-3.75 -3.75H41.25V41.25H-3.75z"/></g></mask><filter x="0%" y="0%" width="100%" xmlns:xlink="http://www.w3.org/1999/xlink" xlink:type="simple" xlink:actuate="onLoad" height="100%" id="a" xlink:show="other"><feColorMatrix values="0 0 0 0 1 0 0 0 0 1 0 0 0 0 1 0 0 0 1 0" color-interpolation-filters="sRGB"/></filter></defs><g mask="url(#b)"><g><g clip-path="url(#c)"><g clip-path="url(#d)"><path fill="#FFF" d="M 26.488281 -0.00390625 L 26.488281 26.539062 L 0 26.539062 Z M 26.488281 -0.00390625"/></g></g></g></g><g mask="url(#e)"><g><g clip-path="url(#f)" transform="translate(5 5)"><g clip-path="url(#g)"><path fill="#001C55" d="M 26.925781 0.476562 L 26.925781 27.015625 L 0.4375 27.015625 Z M 26.925781 0.476562"/></g></g></g></g><g clip-path="url(#h)"><g mask="url(#i)"><g><g clip-path="url(#j)" transform="translate(10 10)"><g clip-path="url(#k)"><path fill="#0F172A" d="M 27.363281 0.957031 L 27.363281 27.496094 L 0.875 27.496094 Z M 27.363281 0.957031"/></g></g></g></g></g></svg>